#N canvas 35 151 510 443 12;
#X obj 57 8 notein;
#X floatatom 52 45 5 0 0 0 - - - 0;
#X floatatom 95 46 5 0 0 0 - - - 0;
#X obj 43 168 noise~;
#X obj 74 274 *~ 0.2;
#X obj 73 306 dac~;
#X obj 75 209 *~;
#X obj 96 78 sel 120 0;
#X msg 96 113 1;
#X msg 128 112 0;
#X obj 153 242 env~ 8192;
#X floatatom 152 273 5 0 0 0 - - - 0;
#X text 115 7 receive MIDI note;
#X text 9 64 pitch note;
#X text 141 46 velocity;
#X text 175 78 select one of the two velocity values;
#X text 159 116 if 120 -> send 1 \; if 0 send 0;
#X text 199 272 just a gain visualizer to debug;
#X text 25 139 noise gen;
#X text 121 308 output;
#X text 311 6 Patch 1;
#X connect 0 0 1 0;
#X connect 0 1 2 0;
#X connect 2 0 7 0;
#X connect 3 0 6 0;
#X connect 4 0 5 0;
#X connect 4 0 5 1;
#X connect 6 0 4 0;
#X connect 6 0 10 0;
#X connect 7 0 8 0;
#X connect 7 1 9 0;
#X connect 8 0 6 1;
#X connect 9 0 6 1;
#X connect 10 0 11 0;
