#N canvas 541 59 506 422 12;
#X obj 57 8 notein;
#X floatatom 52 45 5 0 0 0 - - - 0;
#X floatatom 95 46 5 0 0 0 - - - 0;
#X obj 27 209 noise~;
#X obj 58 315 *~ 0.2;
#X obj 57 347 dac~;
#X obj 95 185 line~;
#X obj 59 250 *~;
#X msg 96 154 \$1 100;
#X obj 96 78 sel 120 0;
#X msg 96 113 1;
#X msg 128 112 0;
#X obj 125 221 env~ 8192;
#X floatatom 124 252 5 0 0 0 - - - 0;
#X text 115 7 receive MIDI note;
#X text 9 64 pitch note;
#X text 141 46 velocity;
#X text 175 78 select one of the two velocity values;
#X text 159 116 if 120 -> send 1 \; if 0 send 0;
#X text 311 6 Patch 2;
#X text 201 221 just a gain visualizer to debug;
#X text 9 180 noise gen;
#X text 105 349 output;
#X text 143 188 create a nice audio ramp of 100ms;
#X text 153 154 package the previous value with a 100 \, resulting in [1 120] or [0 120];
#X connect 0 0 1 0;
#X connect 0 1 2 0;
#X connect 2 0 9 0;
#X connect 3 0 7 0;
#X connect 4 0 5 0;
#X connect 4 0 5 1;
#X connect 6 0 7 1;
#X connect 6 0 12 0;
#X connect 7 0 4 0;
#X connect 8 0 6 0;
#X connect 9 0 10 0;
#X connect 9 1 11 0;
#X connect 10 0 8 0;
#X connect 11 0 8 0;
#X connect 12 0 13 0;
