#N canvas 448 239 546 380 12;
#X obj 216 276 netsend -u -b;
#X floatatom 217 301 5 0 0 0 - - -;
#X msg 33 158 disconnect;
#X msg 33 131 connect localhost 44444;
#X obj 218 168 list prepend send;
#X obj 218 193 list trim;
#X floatatom 219 109 5 0 0 0 - - -;
#X obj 219 143 oscformat sensorvalue;
#X text 260 108 -> type values;
#X text 378 142 -> OSC address (tag);
#X text 28 102 first connect;
#X connect 0 0 1 0;
#X connect 2 0 0 0;
#X connect 3 0 0 0;
#X connect 4 0 5 0;
#X connect 5 0 0 0;
#X connect 6 0 7 0;
#X connect 7 0 4 0;
